<svg width="14" height="16" viewBox="0 0 14 16" fill="none" xmlns="http://www.w3.org/2000/svg">
<path fill-rule="evenodd" clip-rule="evenodd" d="M12.8314 0.410733C12.8994 0.462043 12.9545 0.528424 12.9924 0.604649C13.0303 0.680874 13.05 0.764863 13.05 0.85V11.1555C13.0499 11.6336 12.8941 12.0985 12.6062 12.4801C12.3183 12.8617 11.9139 13.1392 11.4542 13.2705L10.4862 13.5469C10.2488 13.6182 9.9995 13.6416 9.75291 13.6158C9.50632 13.5899 9.26732 13.5154 9.04978 13.3964C8.83224 13.2774 8.6405 13.1165 8.48568 12.9228C8.33086 12.7291 8.21605 12.5066 8.14792 12.2682C8.07978 12.0298 8.05968 11.7803 8.08878 11.5341C8.11787 11.2878 8.19559 11.0498 8.31741 10.8339C8.43923 10.6179 8.60273 10.4283 8.79843 10.2761C8.99412 10.1238 9.2181 10.012 9.45738 9.947L11.1521 9.463C11.3819 9.39735 11.5841 9.25863 11.7281 9.06784C11.872 8.87704 11.9499 8.64455 11.95 8.40553V4.32893L5.34998 6.21507V13.3555C5.34988 13.8336 5.19409 14.2985 4.90617 14.6801C4.61826 15.0617 4.21389 15.3392 3.75425 15.4705L2.78625 15.7469C2.54847 15.8192 2.2987 15.8434 2.05148 15.8181C1.80426 15.7928 1.56455 15.7186 1.34633 15.5997C1.1281 15.4808 0.935724 15.3197 0.780416 15.1257C0.625108 14.9317 0.509975 14.7087 0.441731 14.4697C0.373486 14.2308 0.353496 13.9806 0.382926 13.7339C0.412356 13.4871 0.490616 13.2487 0.613145 13.0325C0.735673 12.8163 0.900017 12.6267 1.09659 12.4746C1.29317 12.3226 1.51805 12.2112 1.75811 12.147L3.45211 11.663C3.68193 11.5974 3.88412 11.4586 4.02808 11.2678C4.17203 11.077 4.24993 10.8445 4.24998 10.6055V5.81247V3.05C4.25 2.93049 4.28895 2.81425 4.36093 2.71885C4.43291 2.62345 4.534 2.55409 4.64891 2.52127L12.3489 0.321267C12.4308 0.297803 12.517 0.293671 12.6007 0.309197C12.6844 0.324722 12.7634 0.359481 12.8314 0.410733Z" fill="#7E3AF2"/>
</svg>
