<svg width="18" height="18" viewBox="0 0 18 18" fill="none" xmlns="http://www.w3.org/2000/svg">
<g clip-path="url(#clip0_31_3749)">
<path fill-rule="evenodd" clip-rule="evenodd" d="M15.3059 1.3C15.0302 1.3 14.7611 1.3814 14.5323 1.53467L10.8069 4.017C9.87214 4.6404 9.01729 5.37604 8.26153 6.20747C9.81392 6.93721 11.0628 8.18608 11.7925 9.73847C12.624 8.98247 13.3596 8.12738 13.983 7.19234L16.4661 3.46774C16.6059 3.25772 16.6861 3.0137 16.6982 2.76169C16.7103 2.50968 16.6538 2.25911 16.5348 2.03666C16.4157 1.81421 16.2386 1.62822 16.0222 1.49849C15.8058 1.36877 15.5582 1.30017 15.3059 1.3ZM9.21926 11.585C9.7 11.318 10.1643 11.0224 10.6097 10.6999C10.3137 9.95121 9.86726 9.27124 9.29801 8.70199C8.72876 8.13274 8.04878 7.68632 7.30013 7.39034C6.97757 7.83545 6.68199 8.2995 6.41499 8.78L6.21113 9.14667C6.83896 9.3273 7.41064 9.66444 7.87253 10.1265C8.33442 10.5885 8.6714 11.1602 8.85186 11.7881L9.21999 11.5843L9.21926 11.585ZM5.14999 10.1C4.42065 10.1 3.72117 10.3897 3.20545 10.9055C2.68972 11.4212 2.39999 12.1207 2.39999 12.85C2.40003 13.0007 2.3691 13.1498 2.30911 13.2881C2.24913 13.4264 2.16137 13.5508 2.05128 13.6538C1.94119 13.7567 1.81112 13.8359 1.66914 13.8865C1.52716 13.9371 1.3763 13.958 1.22593 13.9478C1.1265 13.9411 1.02712 13.9616 0.938412 14.007C0.849706 14.0524 0.775004 14.1211 0.722289 14.2056C0.669574 14.2902 0.640827 14.3875 0.639119 14.4871C0.637411 14.5868 0.662807 14.685 0.712592 14.7713C1.13565 15.5063 1.7895 16.081 2.57265 16.4062C3.35579 16.7314 4.2244 16.789 5.04362 16.57C5.86284 16.351 6.58684 15.8676 7.1032 15.195C7.61956 14.5223 7.89939 13.698 7.89926 12.85C7.89926 12.4889 7.82813 12.1313 7.68993 11.7976C7.55173 11.464 7.34916 11.1608 7.0938 10.9055C6.83844 10.6501 6.53528 10.4475 6.20164 10.3093C5.86799 10.1711 5.51039 10.1 5.14926 10.1H5.14999Z" fill="#7E3AF2"/>
</g>
<defs>
<clipPath id="clip0_31_3749">
<rect width="17.6" height="17.6" fill="white" transform="translate(0.199951 0.199997)"/>
</clipPath>
</defs>
</svg>
