<svg width="18" height="18" viewBox="0 0 18 18" fill="none" xmlns="http://www.w3.org/2000/svg">
<path fill-rule="evenodd" clip-rule="evenodd" d="M1.29993 4.6C1.29993 4.16239 1.47377 3.74271 1.7832 3.43327C2.09264 3.12384 2.51232 2.95 2.94993 2.95H15.0499C15.4875 2.95 15.9072 3.12384 16.2167 3.43327C16.5261 3.74271 16.6999 4.16239 16.6999 4.6V13.4C16.6999 13.8376 16.5261 14.2573 16.2167 14.5667C15.9072 14.8762 15.4875 15.05 15.0499 15.05H2.94993C2.51232 15.05 2.09264 14.8762 1.7832 14.5667C1.47377 14.2573 1.29993 13.8376 1.29993 13.4V4.6ZM2.39993 11.9773V13.4C2.39993 13.7036 2.64633 13.95 2.94993 13.95H15.0499C15.1958 13.95 15.3357 13.8921 15.4388 13.7889C15.542 13.6858 15.5999 13.5459 15.5999 13.4V11.9773L13.6273 10.0054C13.421 9.7994 13.1414 9.6837 12.8499 9.6837C12.5584 9.6837 12.2788 9.7994 12.0726 10.0054L11.4273 10.65L12.1386 11.3613C12.1926 11.4117 12.236 11.4724 12.266 11.5399C12.2961 11.6073 12.3123 11.6802 12.3136 11.754C12.3149 11.8279 12.3013 11.9012 12.2736 11.9697C12.246 12.0382 12.2048 12.1004 12.1526 12.1526C12.1003 12.2049 12.0381 12.246 11.9696 12.2737C11.9011 12.3013 11.8278 12.3149 11.7539 12.3136C11.6801 12.3123 11.6073 12.2962 11.5398 12.2661C11.4723 12.236 11.4116 12.1927 11.3613 12.1387L7.57726 8.3554C7.37101 8.1494 7.09143 8.0337 6.79993 8.0337C6.50843 8.0337 6.22884 8.1494 6.02259 8.3554L2.39993 11.9781V11.9773ZM9.82493 6.25C9.82493 6.03119 9.91185 5.82135 10.0666 5.66663C10.2213 5.51192 10.4311 5.425 10.6499 5.425C10.8687 5.425 11.0786 5.51192 11.2333 5.66663C11.388 5.82135 11.4749 6.03119 11.4749 6.25C11.4749 6.4688 11.388 6.67864 11.2333 6.83336C11.0786 6.98808 10.8687 7.075 10.6499 7.075C10.4311 7.075 10.2213 6.98808 10.0666 6.83336C9.91185 6.67864 9.82493 6.4688 9.82493 6.25Z" fill="#7E3AF2"/>
</svg>
